<svg xmlns="http://www.w3.org/2000/svg" viewBox="0 0 96 96" role="img" aria-labelledby="title desc">
  <title id="title">Groove Metronome mark</title>
  <desc id="desc">A circular metronome wheel with a pendulum arm and three rhythm segments.</desc>
  <defs>
    <linearGradient id="paper" x1="15" y1="8" x2="80" y2="88" gradientUnits="userSpaceOnUse">
      <stop stop-color="#efe5cf"/>
      <stop offset="1" stop-color="#d2bea0"/>
    </linearGradient>
    <linearGradient id="brass" x1="25" y1="16" x2="70" y2="78" gradientUnits="userSpaceOnUse">
      <stop stop-color="#d99543"/>
      <stop offset="1" stop-color="#8b3f25"/>
    </linearGradient>
  </defs>
  <rect width="96" height="96" rx="22" fill="#251d18"/>
  <circle cx="48" cy="48" r="34" fill="url(#paper)" stroke="#6d5646" stroke-width="2"/>
  <path d="M48 14a34 34 0 0 1 32 45L48 48Z" fill="#a85735"/>
  <path d="M80 59A34 34 0 0 1 36 80L48 48Z" fill="#c88336"/>
  <path d="M36 80A34 34 0 0 1 48 14v34Z" fill="#eadcc4"/>
  <circle cx="48" cy="48" r="13" fill="#251d18" stroke="#d7c5a7" stroke-width="1.5"/>
  <path d="M48 22 61 75H35Z" fill="none" stroke="url(#brass)" stroke-width="5" stroke-linejoin="round"/>
  <line x1="48" y1="25" x2="66" y2="50" stroke="#f2e7d0" stroke-width="4" stroke-linecap="round"/>
  <circle cx="66" cy="50" r="5" fill="#48e48a" stroke="#251d18" stroke-width="2"/>
  <circle cx="48" cy="48" r="3.5" fill="#f2e7d0"/>
</svg>
