<svg xmlns="http://www.w3.org/2000/svg" width="1200" height="630" viewBox="0 0 1200 630">
  <defs>
    <linearGradient id="bg" x1="0" y1="0" x2="1" y2="1">
      <stop stop-color="#efe5cf"/>
      <stop offset="1" stop-color="#d7c4a8"/>
    </linearGradient>
    <linearGradient id="brass" x1="0" y1="0" x2="1" y2="1">
      <stop stop-color="#d99543"/>
      <stop offset="1" stop-color="#8b3f25"/>
    </linearGradient>
    <filter id="shadow" x="-20%" y="-20%" width="140%" height="140%">
      <feDropShadow dx="0" dy="22" stdDeviation="24" flood-color="#251d18" flood-opacity="0.22"/>
    </filter>
  </defs>
  <rect width="1200" height="630" fill="url(#bg)"/>
  <g opacity="0.18" stroke="#8f765e" stroke-width="1">
    <path d="M80 0v630M200 0v630M320 0v630M440 0v630M560 0v630M680 0v630M800 0v630M920 0v630M1040 0v630M1160 0v630"/>
  </g>
  <circle cx="1000" cy="128" r="220" fill="#ad5f30" opacity="0.10"/>
  <circle cx="140" cy="520" r="260" fill="#4f382b" opacity="0.08"/>
  <g transform="translate(80 76)">
    <g filter="url(#shadow)">
      <rect width="112" height="112" rx="26" fill="#251d18"/>
      <circle cx="56" cy="56" r="40" fill="#eadcc4" stroke="#6d5646" stroke-width="2"/>
      <path d="M56 16a40 40 0 0 1 38 53L56 56Z" fill="#a85735"/>
      <path d="M94 69A40 40 0 0 1 42 94L56 56Z" fill="#c88336"/>
      <path d="M42 94A40 40 0 0 1 56 16v40Z" fill="#eadcc4"/>
      <circle cx="56" cy="56" r="15" fill="#251d18" stroke="#d7c5a7" stroke-width="2"/>
      <path d="M56 24 71 88H41Z" fill="none" stroke="url(#brass)" stroke-width="6" stroke-linejoin="round"/>
      <line x1="56" y1="28" x2="78" y2="58" stroke="#f2e7d0" stroke-width="5" stroke-linecap="round"/>
      <circle cx="78" cy="58" r="6" fill="#48e48a" stroke="#251d18" stroke-width="2"/>
      <circle cx="56" cy="56" r="4" fill="#f2e7d0"/>
    </g>
    <text x="144" y="45" font-family="Georgia, serif" font-size="44" fill="#251d18">Groove Metronome</text>
    <text x="146" y="82" font-family="Menlo, monospace" font-size="15" letter-spacing="5" fill="#7a6653">NATHANIEL SCHOOL OF MUSIC</text>
  </g>
  <text x="82" y="276" font-family="Georgia, serif" font-size="94" fill="#251d18">See it. Count it.</text>
  <text x="82" y="370" font-family="Georgia, serif" font-size="94" fill="#ad5f30">Lock it in.</text>
  <text x="86" y="432" font-family="Arial, sans-serif" font-size="29" fill="#6b5a49">Visual metronome for practice, stage, studio, and teaching.</text>
  <g transform="translate(86 488)" font-family="Menlo, monospace" font-size="18" letter-spacing="2" fill="#251d18">
    <text>BEAT MAPS  ·  POLYRHYTHM  ·  POLYMETER  ·  SETLISTS  ·  AUDIO &amp; MIDI</text>
  </g>
  <rect x="860" y="350" width="248" height="92" rx="18" fill="#ad5f30"/>
  <text x="984" y="407" text-anchor="middle" font-family="Arial, sans-serif" font-size="28" font-weight="700" fill="#f7ead6">Try free</text>
  <text x="984" y="548" text-anchor="middle" font-family="Menlo, monospace" font-size="17" letter-spacing="2.5" fill="#6b5a49">METRONOME.NATHANIELSCHOOL.COM</text>
</svg>
